<svg width="21" height="20" viewBox="0 0 21 20" fill="none" xmlns="http://www.w3.org/2000/svg">
<path fill-rule="evenodd" clip-rule="evenodd" d="M10.375 0C4.855 0 0.375 4.48 0.375 10C0.375 15.52 4.855 20 10.375 20C15.895 20 20.375 15.52 20.375 10C20.375 4.48 15.895 0 10.375 0ZM10.375 18C5.965 18 2.375 14.41 2.375 10C2.375 5.59 5.965 2 10.375 2C14.785 2 18.375 5.59 18.375 10C18.375 14.41 14.785 18 10.375 18ZM10.685 9.14C8.915 8.69 8.345 8.2 8.345 7.47C8.345 6.63 9.135 6.04 10.445 6.04C11.825 6.04 12.345 6.7 12.385 7.68H14.095C14.045 6.34 13.225 5.11 11.605 4.71V3H9.275V4.69C7.765 5.01 6.555 5.99 6.555 7.5C6.555 9.29 8.045 10.19 10.215 10.71C12.165 11.17 12.555 11.86 12.555 12.58C12.555 13.11 12.165 13.97 10.455 13.97C8.855 13.97 8.225 13.25 8.135 12.33H6.415C6.515 14.03 7.775 14.99 9.275 15.3V17H11.615V15.33C13.135 15.04 14.335 14.17 14.345 12.56C14.335 10.36 12.445 9.6 10.685 9.14Z" fill="#274568"/>
</svg>
