<svg width="24" height="24" viewBox="0 0 24 24" fill="none" xmlns="http://www.w3.org/2000/svg">
<path fill-rule="evenodd" clip-rule="evenodd" d="M5.33316 2.02236C7.30655 0.703785 9.62662 0 12 0C15.1826 0 18.2348 1.26428 20.4853 3.51472C22.7357 5.76516 24 8.8174 24 12C24 14.3734 23.2962 16.6935 21.9776 18.6668C20.6591 20.6402 18.7849 22.1783 16.5922 23.0865C14.3995 23.9948 11.9867 24.2324 9.65892 23.7694C7.33115 23.3064 5.19295 22.1635 3.51473 20.4853C1.8365 18.807 0.693604 16.6688 0.230581 14.3411C-0.232441 12.0133 0.00520107 9.60051 0.913452 7.4078C1.8217 5.21508 3.35977 3.34094 5.33316 2.02236ZM6.24931 20.6208C7.95152 21.7582 9.95277 22.3653 12 22.3653C13.3593 22.3653 14.7053 22.0975 15.9611 21.5773C17.217 21.0572 18.3581 20.2947 19.3192 19.3335C20.2804 18.3723 21.0429 17.2313 21.5631 15.9754C22.0832 14.7196 22.351 13.3736 22.351 12.0143C22.351 9.96705 21.7439 7.96579 20.6065 6.26358C19.4691 4.56137 17.8525 3.23466 15.9611 2.45122C14.0698 1.66778 11.9885 1.46279 9.98063 1.86219C7.97273 2.26158 6.12837 3.24742 4.68076 4.69503C3.23315 6.14264 2.24731 7.98701 1.84792 9.9949C1.44852 12.0028 1.65351 14.084 2.43695 15.9754C3.22039 17.8668 4.5471 19.4834 6.24931 20.6208ZM5.76339 5.76088V7.54553H12.388L5.76339 14.1666V16.658L16.6605 5.76088H5.76339ZM18.2423 18.2392V16.4545H11.6177L18.2423 9.82989V7.33852L7.34166 18.2392H18.2423Z" fill="#FF0034"/>
</svg>
