<svg width="69" height="12" viewBox="0 0 69 12" fill="none" xmlns="http://www.w3.org/2000/svg">
<path fill-rule="evenodd" clip-rule="evenodd" d="M31.9055 4.96913C31.9055 3.36111 31.4672 2.13044 30.5906 1.27711C30.1338 0.848281 29.5956 0.514759 29.0077 0.296136C28.4198 0.0775132 27.794 -0.0218098 27.1671 0.00399868C26.4142 -0.00328414 25.6699 0.163986 24.9929 0.492603C24.3562 0.798689 23.8173 1.2752 23.4365 1.86894V0.220773H21.5039V11.782H23.4365V5.37171C23.4365 4.17201 23.7367 3.25445 24.3372 2.61904C24.6504 2.30047 25.0274 2.05125 25.4436 1.88762C25.8599 1.72399 26.306 1.64962 26.753 1.66936C27.1914 1.6465 27.6297 1.71656 28.039 1.87491C28.4482 2.03327 28.8192 2.27634 29.1273 2.58807C29.7071 3.20054 29.997 4.08828 29.997 5.24096V11.7992H31.9055V4.96913ZM19.9198 6.72395H10.6294C10.6301 7.21219 10.7291 7.69532 10.9207 8.14465C11.1123 8.59397 11.3925 9.00033 11.7447 9.33959C12.0969 9.67884 12.5138 9.94406 12.9708 10.1195C13.4278 10.295 13.9155 10.3771 14.4049 10.3609C15.1386 10.3827 15.8612 10.1798 16.4756 9.77941C17.0255 9.40072 17.4382 8.85531 17.6524 8.22416H19.7231C19.4288 9.31463 18.7717 10.2731 17.8595 10.9424C16.845 11.6579 15.6226 12.0207 14.3808 11.9747C13.3467 11.9923 12.3264 11.7371 11.4232 11.2349C10.5534 10.741 9.84238 10.0107 9.37321 9.1291C8.86363 8.15508 8.60845 7.06873 8.63123 5.9704C8.60701 4.87654 8.85481 3.79372 9.35251 2.81859C9.81201 1.94862 10.516 1.23116 11.3783 0.754083C12.2982 0.254087 13.3333 0.00261814 14.3808 0.0246266C15.4027 0.00372769 16.4121 0.251771 17.3073 0.743761C18.1364 1.20208 18.8166 1.88742 19.2675 2.71881C19.7358 3.59367 19.9733 4.57286 19.9578 5.56438C19.9645 5.95129 19.9518 6.33829 19.9198 6.72395ZM17.504 3.2831C17.1884 2.76231 16.7281 2.34397 16.1788 2.07881C15.6004 1.7994 14.9648 1.65804 14.3221 1.66591C13.4028 1.64559 12.5108 1.97817 11.8304 2.59494C11.1176 3.27067 10.6957 4.19584 10.6536 5.17557H17.9906C18.0109 4.5057 17.8411 3.84374 17.5006 3.2659L17.504 3.2831ZM2.20526 10.1992H7.90993V11.7854H0V10.1992L5.63565 1.77601H0.0414116V0.220753H7.86852V1.78633L2.20526 10.1992ZM33.7105 11.5446C33.5261 11.3606 33.4006 11.1261 33.3499 10.8709C33.2992 10.6157 33.3256 10.3513 33.4258 10.1111C33.5259 9.87085 33.6953 9.66566 33.9125 9.52148C34.1297 9.37731 34.3849 9.30063 34.6458 9.30116C34.8143 9.29884 34.9815 9.33161 35.1366 9.39738C35.2917 9.46314 35.4313 9.56045 35.5465 9.68309C35.7803 9.93701 35.91 10.2691 35.91 10.6138C35.91 10.9585 35.7803 11.2907 35.5465 11.5446C35.4311 11.6668 35.2914 11.7636 35.1363 11.8287C34.9812 11.8939 34.8141 11.926 34.6458 11.9231C34.4722 11.9273 34.2996 11.8958 34.1387 11.8307C33.9778 11.7656 33.8321 11.6682 33.7105 11.5446ZM39.1079 0.761009C38.2546 1.25068 37.559 1.97282 37.1028 2.84271C36.6043 3.81386 36.3564 4.89355 36.3815 5.9842C36.3562 7.08368 36.604 8.17234 37.1028 9.15321C37.5569 10.0282 38.2526 10.7553 39.1079 11.2487C40.0032 11.7518 41.0172 12.0072 42.0448 11.9885C43.298 12.0322 44.5298 11.6567 45.5442 10.9218C46.4731 10.2127 47.1317 9.2089 47.4112 8.07623H45.3406C45.1636 8.75977 44.7506 9.35922 44.1741 9.76913C43.5467 10.1813 42.806 10.3881 42.0551 10.361C41.5529 10.3793 41.0528 10.2863 40.5909 10.0888C40.129 9.89123 39.7168 9.59404 39.384 9.21859C38.7168 8.44325 38.3774 7.36513 38.3659 5.9842C38.3544 4.60328 38.6938 3.53547 39.384 2.78078C39.718 2.4074 40.1306 2.11228 40.5924 1.91657C41.0542 1.72086 41.5537 1.6294 42.0551 1.64874C42.8123 1.62096 43.5585 1.83559 44.1845 2.26121C44.7539 2.66537 45.1631 3.25595 45.3406 3.93002H47.4112C47.1648 2.78373 46.5131 1.764 45.5753 1.05692C44.6224 0.435182 43.5197 0.0797581 42.3821 0.0277093C41.2446 -0.0243394 40.1138 0.228899 39.1079 0.761009ZM49.2853 2.84273C49.7376 1.97683 50.4253 1.2554 51.2697 0.761021C52.1209 0.263543 53.0923 0.00771762 54.0789 0.0212427C55.0052 -0.00243518 55.9209 0.223413 56.7293 0.675C57.4279 1.06267 58.0076 1.63236 58.4066 2.32315V0.220807H60.3564V11.8096H58.4066V9.65215C57.9923 10.3556 57.3964 10.9354 56.681 11.3313C55.8779 11.7881 54.9653 12.0188 54.0409 11.9988C53.0602 12.0059 52.0969 11.7402 51.2593 11.2315C50.4163 10.7144 49.7331 9.97487 49.2853 9.09474C48.7921 8.12536 48.5445 7.05034 48.564 5.96357C48.5402 4.87965 48.7881 3.80694 49.2853 2.84273ZM57.8751 3.69949C57.5488 3.07767 57.0521 2.56102 56.4429 2.20961C55.8387 1.87237 55.1578 1.69529 54.4654 1.69529C53.773 1.69529 53.0921 1.87237 52.4879 2.20961C51.883 2.55856 51.3899 3.07166 51.0661 3.68917C50.7005 4.39322 50.5188 5.17785 50.538 5.97045C50.5175 6.77418 50.699 7.57027 51.0661 8.28614C51.3909 8.90915 51.8833 9.42977 52.4879 9.78978C53.0875 10.1354 53.7694 10.3136 54.462 10.3059C55.1566 10.3127 55.8404 10.1345 56.4429 9.78978C57.0536 9.43406 57.5503 8.91258 57.8751 8.28614C58.2247 7.57373 58.4065 6.7911 58.4065 5.99798C58.4065 5.20486 58.2247 4.42223 57.8751 3.70982V3.69949ZM68.27 0.0143373C67.4682 -0.0103036 66.6745 0.179809 65.9715 0.564874C65.3441 0.923644 64.8364 1.45854 64.5117 2.10293V0.22079H62.5791V11.8164H64.5117V5.5128C64.5117 3.17303 65.593 2.00314 67.7557 2.00314H68.27V0.0143373Z" fill="#FF0034"/>
</svg>
